<svg width="200" height="32" viewBox="0 0 200 32" fill="none" xmlns="http://www.w3.org/2000/svg">
<g clip-path="url(#clip0_10_719)">
<path d="M74.8887 21.4518H77.5327C77.6138 22.1475 77.9733 22.7158 78.6111 23.1332C79.2489 23.5623 80.0259 23.771 80.9652 23.771C81.8813 23.771 82.6234 23.5623 83.2149 23.1564C83.7947 22.7506 84.0846 22.2287 84.0846 21.5909C84.0846 21.0459 83.8758 20.5936 83.4468 20.2574C83.0293 19.9211 82.3335 19.6312 81.371 19.4108L79.3997 18.947C77.9965 18.6223 76.9529 18.112 76.2803 17.4395C75.5961 16.7553 75.2598 15.874 75.2598 14.7723C75.2598 13.4272 75.7932 12.3371 76.8485 11.4906C77.9038 10.6556 79.2721 10.2266 80.942 10.2266C82.6234 10.2266 83.9686 10.644 85.0007 11.4674C86.0212 12.2907 86.5546 13.3808 86.5894 14.7259H83.9918C83.9222 14.0186 83.6207 13.4503 83.0757 13.0445C82.5307 12.6386 81.8117 12.4415 80.9304 12.4415C80.0723 12.4415 79.3765 12.6386 78.8431 13.0213C78.3096 13.404 78.0429 13.9142 78.0429 14.552C78.0429 15.0622 78.2516 15.4681 78.6575 15.7928C79.0634 16.1059 79.7476 16.3842 80.6753 16.6045L82.4263 17.0104C83.9686 17.3583 85.0935 17.8801 85.7892 18.5527C86.485 19.2253 86.8329 20.1298 86.8329 21.2662C86.8329 22.7158 86.2879 23.8638 85.2094 24.7103C84.131 25.5569 82.6582 25.9859 80.8144 25.9859C79.0518 25.9859 77.637 25.58 76.5702 24.7683C75.5033 23.9566 74.9467 22.8549 74.8887 21.4518Z" fill="#24243E"/>
<path d="M89.5108 11.6211H92.1432V14.1955H94.3349V16.2364H92.1432V22.3245C92.1432 23.2638 92.607 23.7276 93.5347 23.7276C93.7783 23.7276 94.0334 23.7044 94.3233 23.6696V25.6874C94.0102 25.757 93.5463 25.7917 92.9433 25.7917C91.7141 25.7917 90.8444 25.5482 90.311 25.0728C89.7775 24.5857 89.5224 23.7972 89.5224 22.6723V16.2248H87.9453V14.1839H89.5224V11.6211H89.5108Z" fill="#24243E"/>
<path d="M106.302 14.1952V25.7451H103.774V23.7273H103.716C103.403 24.4347 102.927 24.9681 102.29 25.3392C101.663 25.7103 100.91 25.8958 100.028 25.8958C98.7642 25.8958 97.7437 25.5132 96.9899 24.7478C96.2362 23.9824 95.8535 22.9272 95.8535 21.6052V14.1952H98.4858V21.0834C98.4858 21.9183 98.7062 22.5561 99.1352 22.9968C99.5643 23.449 100.179 23.6693 100.956 23.6693C101.756 23.6693 102.406 23.4026 102.904 22.8808C103.403 22.359 103.646 21.6748 103.646 20.8167V14.1836H106.302V14.1952Z" fill="#24243E"/>
<path d="M112.958 25.8728C111.509 25.8728 110.349 25.3394 109.468 24.261C108.586 23.1825 108.146 21.7562 108.146 19.9587C108.146 18.1729 108.586 16.7466 109.468 15.6681C110.349 14.5897 111.509 14.0562 112.947 14.0562C113.77 14.0562 114.5 14.2418 115.127 14.6013C115.753 14.9723 116.228 15.471 116.541 16.1204H116.611V9.76562H119.243V25.7221H116.669V23.7623H116.623C116.31 24.4117 115.822 24.9219 115.185 25.293C114.547 25.6641 113.793 25.8728 112.958 25.8728ZM113.724 16.2595C112.854 16.2595 112.146 16.5958 111.625 17.28C111.103 17.9526 110.836 18.8571 110.836 19.9819C110.836 21.1184 111.103 22.0229 111.625 22.6839C112.146 23.3565 112.854 23.6927 113.724 23.6927C114.593 23.6927 115.301 23.3565 115.822 22.6723C116.344 21.9997 116.611 21.0952 116.611 19.9819C116.611 18.8687 116.344 17.9758 115.822 17.28C115.289 16.5958 114.593 16.2595 113.724 16.2595Z" fill="#24243E"/>
<path d="M122.967 12.7234C122.561 12.7234 122.213 12.5842 121.923 12.3059C121.633 12.0276 121.494 11.6797 121.494 11.2854C121.494 10.8796 121.633 10.5317 121.923 10.2534C122.213 9.9751 122.561 9.83594 122.967 9.83594C123.384 9.83594 123.732 9.9751 124.022 10.2534C124.312 10.5317 124.451 10.8796 124.451 11.2854C124.451 11.6913 124.312 12.0392 124.022 12.3175C123.732 12.5842 123.384 12.7234 122.967 12.7234ZM121.656 14.1961H124.289V25.746H121.656V14.1961Z" fill="#24243E"/>
<path d="M131.662 25.9174C129.957 25.9174 128.601 25.3841 127.603 24.3172C126.606 23.2503 126.107 21.8007 126.107 19.9569C126.107 18.1363 126.606 16.6984 127.615 15.6315C128.624 14.5647 129.969 14.0312 131.674 14.0312C133.378 14.0312 134.735 14.5647 135.732 15.6315C136.741 16.6984 137.24 18.1363 137.24 19.9685C137.24 21.8123 136.741 23.262 135.744 24.3288C134.723 25.3841 133.367 25.9174 131.662 25.9174ZM131.662 23.8186C132.567 23.8186 133.285 23.4823 133.796 22.8097C134.306 22.1371 134.561 21.1978 134.561 19.9802C134.561 18.7742 134.306 17.8349 133.796 17.1623C133.285 16.4898 132.578 16.1418 131.662 16.1418C130.757 16.1418 130.05 16.4782 129.54 17.1623C129.03 17.8349 128.775 18.7742 128.775 19.9802C128.775 21.1862 129.03 22.1255 129.54 22.798C130.05 23.4706 130.757 23.8186 131.662 23.8186Z" fill="#24243E"/>
<path d="M145.312 14.0664C146.785 14.0664 147.956 14.5999 148.825 15.6667C149.695 16.7336 150.124 18.1715 150.124 19.9805C150.124 21.7896 149.695 23.2159 148.837 24.2828C147.979 25.3496 146.819 25.883 145.358 25.883C144.535 25.883 143.804 25.7091 143.178 25.3496C142.552 24.9901 142.065 24.4915 141.74 23.8421H141.694V29.4663H139.061V14.194H141.624V16.1422H141.682C141.995 15.5044 142.482 15.0057 143.143 14.6346C143.781 14.252 144.512 14.0664 145.312 14.0664ZM144.546 23.6913C145.416 23.6913 146.124 23.355 146.645 22.6825C147.167 22.0099 147.434 21.1054 147.434 19.9805C147.434 18.8557 147.167 17.9512 146.645 17.2786C146.124 16.606 145.416 16.2581 144.546 16.2581C143.688 16.2581 142.993 16.606 142.459 17.2902C141.926 17.9744 141.671 18.8673 141.671 19.9805C141.671 21.0938 141.937 21.9867 142.459 22.6709C142.993 23.3435 143.688 23.6913 144.546 23.6913Z" fill="#24243E"/>
<path d="M151.98 25.7439V14.194H154.508V16.2001H154.566C154.751 15.5276 155.087 14.9941 155.575 14.6231C156.062 14.252 156.653 14.0664 157.337 14.0664C157.662 14.0664 157.929 14.1012 158.137 14.1708V16.5712C157.905 16.4669 157.557 16.4089 157.094 16.4089C156.328 16.4089 155.725 16.6408 155.285 17.1163C154.844 17.5801 154.624 18.2295 154.624 19.0412V25.7439H151.98Z" fill="#24243E"/>
<path d="M167.055 22.3111H169.525C169.351 23.3779 168.806 24.2477 167.867 24.9202C166.927 25.5812 165.791 25.9174 164.446 25.9174C162.741 25.9174 161.396 25.3841 160.399 24.3288C159.413 23.2736 158.914 21.8355 158.914 20.0149C158.914 18.1943 159.401 16.7448 160.387 15.6547C161.373 14.5647 162.695 14.0312 164.341 14.0312C165.965 14.0312 167.252 14.5416 168.203 15.5736C169.154 16.6057 169.629 17.9857 169.629 19.7367V20.6063H161.547V20.7687C161.547 21.6964 161.813 22.4501 162.358 23.0184C162.903 23.5866 163.611 23.865 164.492 23.865C165.13 23.865 165.675 23.7258 166.127 23.4475C166.591 23.1692 166.904 22.798 167.055 22.3111ZM164.353 16.0838C163.588 16.0838 162.938 16.3389 162.428 16.8491C161.918 17.3594 161.628 18.0321 161.57 18.8554H167.043C167.02 18.0205 166.753 17.3594 166.266 16.8491C165.768 16.3389 165.13 16.0838 164.353 16.0838Z" fill="#24243E"/>
<path d="M171.161 17.5333C171.161 16.4781 171.59 15.6431 172.436 14.9937C173.283 14.3559 174.408 14.0312 175.799 14.0312C177.133 14.0312 178.223 14.356 179.07 15.0054C179.916 15.6548 180.357 16.5128 180.38 17.5565H177.933C177.887 17.0695 177.678 16.6868 177.284 16.3969C176.889 16.107 176.379 15.9678 175.753 15.9678C175.138 15.9678 174.651 16.0954 174.28 16.3505C173.909 16.6056 173.724 16.9535 173.724 17.371C173.724 18.0088 174.28 18.4611 175.405 18.7278L177.434 19.1917C178.594 19.4584 179.417 19.8295 179.916 20.3165C180.403 20.792 180.647 21.4646 180.647 22.3111C180.647 23.3779 180.194 24.2477 179.278 24.9086C178.374 25.5696 177.191 25.9058 175.741 25.9058C174.338 25.9058 173.19 25.5811 172.309 24.9317C171.428 24.2823 170.952 23.4126 170.871 22.3342H173.457C173.538 22.856 173.782 23.262 174.188 23.5403C174.593 23.8186 175.15 23.9576 175.846 23.9576C176.518 23.9576 177.052 23.8301 177.434 23.5866C177.829 23.3315 178.026 22.9953 178.026 22.5662C178.026 22.2299 177.91 21.9632 177.678 21.7544C177.446 21.5573 177.04 21.3834 176.46 21.2558L174.373 20.7456C172.216 20.2585 171.161 19.18 171.161 17.5333Z" fill="#24243E"/>
<path d="M183.104 11.6211H185.736V14.1955H187.928V16.2364H185.736V22.3245C185.736 23.2638 186.2 23.7276 187.128 23.7276C187.371 23.7276 187.627 23.7044 187.905 23.6696V25.6874C187.592 25.757 187.128 25.7917 186.525 25.7917C185.296 25.7917 184.414 25.5482 183.893 25.0728C183.359 24.5857 183.104 23.7972 183.104 22.6723V16.2248H181.527V14.1839H183.104V11.6211Z" fill="#24243E"/>
<path d="M194.422 25.9174C192.717 25.9174 191.361 25.3841 190.363 24.3172C189.366 23.2503 188.867 21.8007 188.867 19.9569C188.867 18.1363 189.366 16.6984 190.375 15.6315C191.384 14.5647 192.729 14.0312 194.434 14.0312C196.138 14.0312 197.495 14.5647 198.492 15.6315C199.501 16.6984 200 18.1363 200 19.9685C200 21.8123 199.501 23.262 198.504 24.3288C197.495 25.3841 196.138 25.9174 194.422 25.9174ZM194.422 23.8186C195.327 23.8186 196.046 23.4823 196.556 22.8097C197.066 22.1371 197.321 21.1978 197.321 19.9802C197.321 18.7742 197.066 17.8349 196.556 17.1623C196.046 16.4898 195.338 16.1418 194.422 16.1418C193.518 16.1418 192.81 16.4782 192.3 17.1623C191.79 17.8349 191.535 18.7742 191.535 19.9802C191.535 21.1862 191.79 22.1255 192.3 22.798C192.822 23.4706 193.529 23.8186 194.422 23.8186Z" fill="#24243E"/>
<path d="M3.08364 21.5232C2.59659 20.468 1.57612 19.8766 0.787579 20.2244C-0.000967562 20.5723 -0.232893 21.7088 0.254151 22.764C0.741194 23.8193 1.76166 24.4107 2.55021 24.0628C3.32716 23.7265 3.57068 22.5901 3.08364 21.5232ZM11.1547 27.4605C11.3402 28.0171 11.0271 28.6202 10.4705 28.8057C9.94864 29.0956 9.28764 28.9217 8.97454 28.4114C8.8006 27.8432 9.1021 27.2402 9.67032 27.0662C10.1922 26.7763 10.8416 26.9503 11.1547 27.4605ZM19.446 29.3043C20.4317 30.4408 23.3424 31.1945 27.0416 31.5772C23.8758 29.5826 20.8144 27.6345 17.7994 25.7443C17.9501 27.0778 18.5299 28.3302 19.446 29.3043ZM7.58299 24.0744C9.1021 26.2661 12.4767 24.805 14.6915 23.8077C11.92 22.0799 9.17168 20.3868 6.43496 18.7401C6.81764 19.262 7.08435 19.8534 7.22351 20.4912C7.51341 22.0219 6.80604 22.9496 7.58299 24.0744ZM3.07204 12.0491C12.1752 17.6269 20.6752 24.2716 32.2251 31.8671C34.2429 31.8903 36.3186 31.8323 38.3595 31.6816C22.4611 22.1726 15.8048 14.2756 7.08435 8.51221C5.3913 9.21958 3.86059 10.1705 3.07204 12.0491ZM52.8317 26.8343C54.0609 25.4892 54.6987 23.7149 54.6175 21.8943C36.6665 17.94 39.4032 11.6316 30.7756 6.72638C29.384 6.9931 27.9345 6.87714 26.6009 6.3785C25.708 5.94943 24.7687 5.47399 22.8553 3.66497C20.2578 2.99238 17.637 2.44736 14.9931 2.05309C14.8191 2.41257 14.6915 2.80684 14.5408 3.22431C33.8834 7.9324 24.7107 17.8008 52.8317 26.8343ZM13.961 4.46511C13.5087 5.20727 12.8825 5.83347 12.152 6.29732C11.7113 6.58723 11.2475 6.84235 10.772 7.05108C19.2605 12.7101 23.6555 21.1058 42.9865 31.1713C44.0881 30.9974 45.1434 30.8118 46.1175 30.5799C47.3351 30.3016 48.5179 29.861 49.6311 29.2927C23.8526 19.0184 26.4502 9.63705 13.961 4.46511ZM17.4978 0.197685C16.8601 0.325244 16.2686 0.61515 15.7584 1.02102C17.695 1.29933 19.4692 1.60083 21.1043 1.91393C19.6316 0.360033 19.1561 -0.219781 17.4978 0.197685ZM35.1242 6.23934C43.5895 10.6691 41.4326 15.6439 53.3071 17.7892C53.11 17.4413 52.9013 17.0935 52.6578 16.7456C50.3037 13.3131 42.0704 6.76117 35.1242 6.23934Z" fill="#24243E"/>
</g>
<defs>
<clipPath id="clip0_10_719">
<rect width="200" height="32" fill="white"/>
</clipPath>
</defs>
</svg>
