<svg width="883" height="514" viewBox="0 0 883 514" fill="none" xmlns="http://www.w3.org/2000/svg">
<g opacity="0.5">
<path d="M49.7098 346.916C41.7774 329.707 25.2513 320.44 12.6916 325.735C0.1318 331.031 -3.83444 349.564 4.09804 366.773C12.0305 383.982 28.5565 393.249 41.1163 387.954C53.6761 382.658 57.6423 364.125 49.7098 346.916Z" fill="#F2F2F2"/>
<path d="M179.935 442.891C182.579 452.157 177.952 461.424 168.697 464.733C160.104 469.367 149.527 466.719 144.9 458.114C142.256 448.848 146.883 439.581 156.137 436.272C164.731 431.639 175.308 434.948 179.935 442.891Z" fill="#F2F2F2"/>
<path d="M314.126 472.676C329.991 491.209 376.925 503.123 436.419 509.08C385.518 476.648 335.94 445.538 287.023 415.091C289.668 436.934 298.922 456.791 314.126 472.676Z" fill="#F2F2F2"/>
<path d="M122.424 387.954C146.883 423.696 201.749 399.868 237.445 383.32C192.495 355.521 148.205 328.383 103.915 301.245C109.865 309.85 114.492 319.116 116.475 329.707C121.102 354.859 109.865 370.082 122.424 387.954Z" fill="#F2F2F2"/>
<path d="M49.7098 193.356C196.461 283.374 333.957 390.601 520.371 513.714C552.762 514.376 586.475 513.052 619.527 510.404C362.382 357.506 255.293 229.76 114.492 136.433C87.3892 148.347 62.2696 163.571 49.7098 193.356Z" fill="#F2F2F2"/>
<path d="M852.874 432.962C872.705 411.12 883.282 382.658 881.96 352.873C592.424 288.669 636.714 187.399 497.234 107.972C474.759 112.605 451.623 110.619 429.808 102.015C415.265 95.3957 400.061 87.4529 369.654 58.3295C328.008 47.7392 285.701 38.4727 242.734 32.5156C240.09 38.4727 238.106 44.4297 235.462 51.0487C546.812 127.167 399.4 286.683 852.874 432.962Z" fill="#F2F2F2"/>
<path d="M225.547 70.9056C218.275 82.8197 208.36 92.7481 196.461 100.691C189.189 105.324 181.918 109.296 173.985 112.605C310.821 204.608 382.213 340.297 694.224 502.461C712.073 499.814 729.26 496.504 744.464 493.195C764.295 488.562 783.465 481.943 801.313 472.014C384.857 306.54 427.164 154.966 225.547 70.9056Z" fill="#F2F2F2"/>
<path d="M282.396 2.06842C271.82 4.05411 262.565 8.68738 254.632 15.3063C285.701 19.9396 314.787 24.5729 340.568 29.868C316.77 4.716 309.499 -4.55053 282.396 2.06842Z" fill="#F2F2F2"/>
<path d="M567.305 100.029C704.14 171.514 669.105 252.265 860.807 286.684C857.501 281.388 854.196 275.431 850.23 269.474C811.89 213.875 679.02 107.972 567.305 100.029Z" fill="#F2F2F2"/>
</g>
</svg>
